<svg xmlns="http://www.w3.org/2000/svg" id="garden-seeds-sowing" viewBox="0 0 500 500">
  <path fill="#9ad31e" d="M298.7956184 388.6204024c-10.3486604 5.4749473-23.104211 1.4871209-28.5696202-8.8047565-5.4749473-10.3486604-1.5534419-23.1514558 8.7384356-28.6168651 10.3486604-5.4749473 25.0355233-4.3635881 35.1948318 4.1433739 2.2882537 13.622666-5.0717697 27.8128385-15.3636471 33.2782478ZM228.7775108 345.6847659c-1.4483138-10.8834233 5.8688269-25.3276523 15.6339521-30.4697647 10.177987 1.9341585 22.244566 14.3416444 23.7036292 25.1685017 1.4483138 10.8834233-6.1913019 20.860359-17.0181591 22.3194222-10.8834233 1.4483138-20.860359-6.1913019-22.3194222-17.0181591ZM309.8205279 293.1645739c10.4301329-3.8079616 25.5145587-1.1225819 36.6699257 6.7378635-1.0983606 14.6769762-12.5490638 27.1259168-22.9518983 30.8571624-10.3781257 3.7832528-21.886923-1.5220155-25.6701758-11.9001413-3.8079616-10.4301329 1.5740227-21.9116318 11.9521484-25.6948846ZM316.8443473 182.8830214c7.3315204 8.3388879 10.2998484 23.3701951 7.0204645 36.6168723-14.0760147 4.2995158-29.8303153-1.856517-37.0804425-10.1977888-7.2896319-8.2993833-6.5196326-20.9487069 1.7797506-28.2383388 8.3388879-7.3315204 20.9905955-6.480128 28.2802273 1.8192553ZM276.0561405 251.0230191c7.343873-8.3280114 21.878592-13.1749804 35.4338068-11.5986029 6.0465395 13.4186208 1.9340382 29.8253895-5.4225014 38.072964-7.3099878 8.2814596-19.9550403 9.1186784-28.2364999 1.8086906-8.3280114-7.343873-9.0847933-20.0015921-1.7748055-28.2830517Z"></path>
  <g>
    <g>
      <path fill="#ffdf22" d="m242.3146841,55.790856l50.4089787,86.0188738c-9.0057314,5.5437415-16.1473273,13.0010342-21.1802498,21.5544535-8.0183159,13.6492195-10.7309964,30.008886-7.2175866,45.709486l-129.9636523,76.2104756-72.5117464-123.671276L242.3146841,55.790856Zm-11.4059114,49.5748545c-11.8839923,16.4778724-19.324819,22.6023386-50.9886015,33.2330032-61.9865731,20.8344563-39.7580891,62.5320772-39.7580891,62.5320772,0,0,21.3977894,15.114463,57.4576905.375394,41.7179383-17.0365287,48.4482393-78.6695645,33.2890001-96.1404744Z"></path>
      <g>
        <path fill="#fff" d="m239.1953024 77.5075953 42.655316 72.7880666c3.2482201-3.1535494 6.8645981-6.0183636 10.8730793-8.4857421l-50.4089997-86.0191568L61.8503704 161.612787l8.6771234 14.7995208 168.6678086-98.9047124ZM259.9906404 211.6159585l4.3351715-2.5423058c-.8534838-3.8144974-1.3245249-7.6675009-1.4562899-11.5109255-1.4851169 4.5582277-2.4577584 9.2677504-2.8788816 14.0532313Z"></path>
      </g>
      <path fill="#9ad31e" d="m140.1620821,201.130791s21.3977894,15.114463,57.4576905.375394c41.7179383-17.0365287,48.4482393-78.6695645,33.2890001-96.1404744-11.8839923,16.4778724-19.324819,22.6023386-50.9886015,33.2330032-61.9865731,20.8344563-39.7580891,62.5320772-39.7580891,62.5320772Z"></path>
      <path fill="#fff" d="m190.5680825,152.472707c28.240669-9.4810832,37.2164717-15.3984657,47.2576765-28.2535498-.9471325-7.989247-3.3008143-14.6857256-6.9170142-18.853655-11.8839464,16.4781148-19.3247817,22.6023715-50.988633,33.2333629-61.9865334,20.8341826-39.7580968,62.5318226-39.7580968,62.5318226,0,0,2.5884645,1.7880956,7.3791633,3.534426-2.3948615-13.7220041.4439989-37.8798353,43.0269042-52.1924066Z"></path>
      <path fill="none" stroke="#413c68" stroke-linecap="round" stroke-linejoin="round" stroke-width="7" d="M179.9201712 138.5987137c-61.9865731 20.8344563-39.7580891 62.5320772-39.7580891 62.5320772 0 0 21.3977894 15.114463 57.4576905.375394 41.7179383-17.0365287 48.4482393-78.6695645 33.2890001-96.1404744-11.8839923 16.4778724-19.324819 22.6023386-50.9886015 33.2330032ZM140.1620821 201.130791c-2.447633 9.7120764-3.5537348 19.9905881-1.4300013 29.866935"></path>
      <path fill="none" stroke="#413c68" stroke-linecap="round" stroke-linejoin="round" stroke-width="7" d="m181.9848605,172.4380144c-.9322795.5491417-24.8346282,4.0505349-37.9494759,24.7431736"></path>
      <path fill="none" stroke="#413c68" stroke-linecap="round" stroke-linejoin="round" stroke-width="7" d="m134.3621742,285.2841449l-72.5117464-123.671276L242.3146841,55.790856l50.4089787,86.0188738c-9.0057314,5.5437415-16.1473273,13.0010342-21.1802498,21.5544535-8.0183159,13.6492195-10.7309964,30.008886-7.2175866,45.709486l-129.9636523,76.2104756Z"></path>
    </g>
    <path fill="#c6e84d" d="m386.6046786,317.197496h51.544867c0,71.5296945-72.7767477,129.501682-162.5965563,129.501682-89.7878328,0-162.5965563-59.3789194-162.5965563-130.9086138l34.2460003-.575563c3.6132568,36.5162767,47.5159258,50.2338623,77.7649606,37.8592572,7.7701009,26.0921907,33.2867286,46.332824,61.1056085,43.6468632,24.9730404-2.430155,50.4576924-24.4934045,44.8619407-51.4809156,24.6532832,4.3806742,48.6350761-7.9619553,55.6697354-28.0427099Z"></path>
    <path fill="#fff" d="m149.1302327,327.5179108c3.8166337,38.5714977,50.1908013,53.0612782,82.1427152,39.9903424,8.2074408,27.5607165,30.4194836,45.9592482,59.804401,43.1223395,26.3788013-2.5668013,54.2947168-23.118386,54.3905425-50.6498278,25.9962792,5.180442,55.3499703-17.6506621,58.036017-41.4404133h34.6032213c.0056598-.4492683.0425458-.8922913.0425458-1.3427306h-51.5448514c-7.0346983,20.0808483-31.0164913,32.4230406-55.6698447,28.0427724,5.5957517,26.9873237-19.8888066,49.0502609-44.8618392,51.4804472-27.8189189,2.6862418-53.3356793-17.5546412-61.1057568-43.6465509-27.5519341,11.2711304-66.418325.887217-75.8627173-28.6462205l.0255665,3.0898417Z"></path>
    <path fill="#fff" d="M288.3877629 361.9425832c7.5647646-4.0020398 17.4359813-4.4415498 26.1740739-1.089017.0253714-1.8329834-.0944595-3.6765057-.402624-5.5114407-10.1592792-8.5068228-24.8461758-9.6184789-35.1947644-4.1433387-10.2917958 5.4653819-14.2134279 18.268162-8.7384829 28.6169458 1.9963359 3.7592553 4.971421 6.6660329 8.440467 8.5891822-3.9175336-9.9116157.1327117-21.3704942 9.7213305-26.4623316ZM239.6398115 354.4791089c-1.4483145-10.8835341 5.8687866-25.3276462 15.6338339-30.469836 1.8542563.3524668 3.7711604 1.060523 5.6751836 2.0347833-4.6747712-5.458356-10.8932923-9.7566552-16.5374447-10.8292784-9.7650473 5.1421898-17.0821484 19.5866922-15.6338339 30.469836 1.0419824 7.7320205 6.43691 13.8172443 13.3949087 16.1490677-1.2871088-2.1979407-2.1719838-4.6776987-2.5326475-7.3545726ZM318.6682895 303.7882966c7.6123847-2.7791401 17.6955499-2.064058 26.9293598 1.5620953.4469263-1.7720921.7539198-3.5918043.8928768-5.4482075-11.155398-7.8604386-26.2398443-10.5458998-36.6700116-6.7378534-10.3780585 3.7834557-15.7601052 15.2649733-11.9520588 25.6953358 1.673339 4.5902651 4.8611532 8.1820694 8.7907869 10.4401207-3.6790428-10.3815714 1.6914893-21.750284 12.0090468-25.511491ZM296.8362316 192.3354119c7.199417-6.3295696 17.6063598-6.5469826 25.0089428-1.1510792-1.3198964-3.1480007-2.9744996-5.9966192-5.0008908-8.3011196-7.2895829-8.2995583-19.9413058-9.1508651-28.2800922-1.8197122-8.2993632 7.2897781-9.0694816 19.939159-1.7798987 28.2387173 1.169815 1.3458532 2.5806579 2.6245699 4.1505598 3.8220983-2.1909148-7.265968-.1676462-15.4585763 5.901379-20.7889045ZM285.479424 261.5750325c6.1406505-6.9634633 17.3143939-11.4342878 28.7338493-11.809784-.3569556-3.5176419-1.2271933-7.0208416-2.7233231-10.3409772-13.5551386-1.5765375-28.0900021 3.2705639-35.4338407 11.5986162-7.30988 8.2816032-6.5532279 20.939181 1.7748244 28.2832148 1.236366 1.0913589 2.5781208 1.9789663 3.9768636 2.7092712-2.5906113-6.7499535-1.43114-14.6595735 3.6716266-20.440341Z"></path>
    <path fill="none" stroke="#413c68" stroke-linecap="round" stroke-linejoin="round" stroke-width="7" d="m438.1495456,317.197496h-51.544867c-7.0346593,20.0807546-31.0164522,32.4233841-55.6697354,28.0427099,5.5957517,26.987511-19.8889003,49.0507605-44.8619407,51.4809156-27.8188798,2.6859608-53.3355075-17.5546724-61.1056085-43.6468632-30.2490349,12.3746052-74.1517038-1.3429804-77.7649606-37.8592572l-34.2460003.575563"></path>
  </g>
  <path fill="none" stroke="#413c68" stroke-linecap="round" stroke-linejoin="round" stroke-width="7" d="M298.7956184 388.6204024c-10.3486604 5.4749473-23.104211 1.4871209-28.5696202-8.8047565-5.4749473-10.3486604-1.5534419-23.1514558 8.7384356-28.6168651 10.3486604-5.4749473 25.0355233-4.3635881 35.1948318 4.1433739 2.2882537 13.622666-5.0717697 27.8128385-15.3636471 33.2782478ZM228.7775108 345.6847659c-1.4483138-10.8834233 5.8688269-25.3276523 15.6339521-30.4697647 10.177987 1.9341585 22.244566 14.3416444 23.7036292 25.1685017 1.4483138 10.8834233-6.1913019 20.860359-17.0181591 22.3194222-10.8834233 1.4483138-20.860359-6.1913019-22.3194222-17.0181591ZM309.8205279 293.1645739c10.4301329-3.8079616 25.5145587-1.1225819 36.6699257 6.7378635-1.0983606 14.6769762-12.5490638 27.1259168-22.9518983 30.8571624-10.3781257 3.7832528-21.886923-1.5220155-25.6701758-11.9001413-3.8079616-10.4301329 1.5740227-21.9116318 11.9521484-25.6948846ZM316.8443473 182.8830214c7.3315204 8.3388879 10.2998484 23.3701951 7.0204645 36.6168723-14.0760147 4.2995158-29.8303153-1.856517-37.0804425-10.1977888-7.2896319-8.2993833-6.5196326-20.9487069 1.7797506-28.2383388 8.3388879-7.3315204 20.9905955-6.480128 28.2802273 1.8192553ZM276.0561405 251.0230191c7.343873-8.3280114 21.878592-13.1749804 35.4338068-11.5986029 6.0465395 13.4186208 1.9340382 29.8253895-5.4225014 38.072964-7.3099878 8.2814596-19.9550403 9.1186784-28.2364999 1.8086906-8.3280114-7.343873-9.0847933-20.0015921-1.7748055-28.2830517Z"></path>
</svg>
